<svg xmlns="http://www.w3.org/2000/svg" width="140.744" height="101.774" viewBox="0 0 140.744 101.774"><defs><style>.a{fill:#e21d38;}</style></defs><path class="a" d="M17.022,159.608v.68c0,1.894-.891,2.766-2.333,2.766s-2.5-.873-2.5-2.766v-.863c0-2.039,1.056-2.893,2.5-2.893a2.19,2.19,0,0,1,2.333,2.049H15.571a.86.86,0,0,0-.882-.78c-.634,0-.974.459-.974,1.5v.992c0,1.039.34,1.5.974,1.5.615,0,.817-.387.873-.909h-.845v-1.269Z" transform="translate(-5.103 -65.53)"/><path class="a" d="M28.694,163.027l-1.056-2.4h-.79v2.4H25.323V156.69h2.388c1.46,0,2.4.669,2.4,1.993a1.705,1.705,0,0,1-1.01,1.681l1.268,2.664Zm-1.167-3.666c.616,0,1.056-.081,1.056-.678s-.441-.727-1.056-.727h-.68v1.405Z" transform="translate(-10.601 -65.596)"/><path class="a" d="M37.4,163.027,39.6,156.69h1.47l2.205,6.337H41.65l-.34-1.083H39.353l-.331,1.083Zm2.352-2.352h1.167l-.579-1.875Z" transform="translate(-15.655 -65.596)"/><path class="a" d="M51.461,163.027V156.69h2.361c1.442,0,2.5.706,2.5,2.708v.919c0,1.984-1.056,2.71-2.5,2.71Zm3.335-2.71V159.4c0-.854-.184-1.442-.974-1.442h-.836v3.8h.836c.79,0,.974-.588.974-1.442" transform="translate(-21.543 -65.596)"/><path class="a" d="M75.2,163.028l-1.369-2.435-.552.754v1.681H71.753V156.69h1.524v2.352l1.635-2.352h1.773l-1.874,2.562,2.2,3.775Z" transform="translate(-30.039 -65.596)"/><path class="a" d="M86.784,163.053c-1.442,0-2.5-.873-2.5-2.766v-.993c0-1.91,1.056-2.764,2.5-2.764s2.5.854,2.5,2.764v.993c0,1.893-1.056,2.766-2.5,2.766m-.974-2.766c0,1.039.34,1.5.974,1.5s.974-.459.974-1.5v-.993c0-1.037-.34-1.5-.974-1.5s-.974.458-.974,1.5Z" transform="translate(-35.285 -65.53)"/><path class="a" d="M100.835,159.905l1.709-3.215h1.424v6.337h-1.433v-3.583l-1.3,2.536h-.817l-1.277-2.509v3.555H97.7V156.69h1.414Z" transform="translate(-40.902 -65.596)"/><path class="a" d="M117.543,156.69v1.266h-2.48v1.158h2.2v1.269h-2.2v1.377h2.48v1.268h-4.005V156.69Z" transform="translate(-47.531 -65.596)"/><path class="a" d="M129.928,156.69v6.337H128.7l-2.333-3.509v3.509h-1.434V156.69h1.213l2.352,3.553V156.69Z" transform="translate(-52.301 -65.596)"/><path class="a" d="M138.586,163.027V156.69h2.361c1.442,0,2.5.706,2.5,2.708v.919c0,1.984-1.056,2.71-2.5,2.71Zm3.335-2.71V159.4c0-.854-.184-1.442-.974-1.442h-.836v3.8h.836c.79,0,.974-.588.974-1.442" transform="translate(-58.017 -65.596)"/><path class="a" d="M150.186,163.027l2.2-6.337h1.47l2.205,6.337h-1.626l-.34-1.083h-1.957l-.33,1.083Zm2.352-2.352H153.7l-.579-1.875Z" transform="translate(-62.873 -65.596)"/><path class="a" d="M11.537,92.675V91.93c0-3.542,1.553-7.7,3.6-7.7.559,0,1.43.186,1.43.683a.457.457,0,0,1-.124.373,11.907,11.907,0,0,0-1.491,5.779v.745c.435,5.965,3.728,7.208,5.655,7.208a9.571,9.571,0,0,0,9.383-9.942c0-.31-.063-.621-.063-.932-.5-6.587-5.157-11.93-9.32-11.93-.5,0-1.181.186-1.8.186-1.056,0-1.553-.5-1.616-.87v-.062c0-.933,2.112-1.119,2.92-1.554,2.423-1.18,8.14-6.213,8.14-11.122v-.373a4.124,4.124,0,0,0-4.039-3.853c-3.231,0-7.58,4.1-7.58,8.513v.435c.062.933.5,1.927.559,2.734v.124c0,.621-.5.808-1.305.808-1.8,0-2.424-1.429-2.548-3.045v-.683A10.556,10.556,0,0,1,24.274,56.885c2.61,0,7.147,1.118,7.457,5.592v.5c0,6.09-7.394,11.247-7.394,11.682,0,.373,8.762,2.983,9.507,13.422,0,.373.062.684.062,1.056,0,7.829-6.213,11.5-13.11,11.5-5.717,0-8.886-2.8-9.258-7.954" transform="translate(-4.83 -23.814)"/><path d="M51.141,0C24.389,0,0,16.86,0,26.006a2.694,2.694,0,0,0,2.364,2.8A.953.953,0,0,0,3.3,27.747c0-.5-.249-1.119-.249-1.555C3.048,18.353,23.7,1.68,49.586,1.68c11.26,0,25.258,4.915,25.258,17.98,0,18.217-24.536,28.15-29.313,29.8a4.248,4.248,0,0,0-1.761-1.453c-.109-2-.131-1.763-.13-2.133,0-1.038.366-.181,1.764-1.528a12.17,12.17,0,0,0,1.3-1.923,8.738,8.738,0,0,0,.573-4.991s-1.312-8.17-1.852-10.937c-.063-.32-.277-.446-.369-.417-.194.063-.178.31-.174.434.139,3.046.691,11.843.675,12.1-.024.294.145.737-.4.886-.6.161-.6-.687-.6-.687s-.4-9.246-.762-12.319c-.039-.324-.205-.417-.3-.417-.275,0-.271.417-.271.417s.049,11.491.048,12.181c0,.847-.406.868-.406.868-.06,0-.112.016-.163.016s-.1-.016-.165-.016c0,0-.4-.021-.4-.868,0-.691.048-12.181.048-12.181s0-.417-.271-.417c-.1,0-.263.093-.3.417-.367,3.073-.762,12.319-.762,12.319s0,.848-.6.687c-.549-.149-.378-.592-.4-.886-.017-.26.535-9.057.674-12.1.006-.124.02-.371-.173-.434-.093-.03-.306.1-.369.417-.54,2.767-1.852,10.937-1.852,10.937a8.74,8.74,0,0,0,.572,4.991,12.209,12.209,0,0,0,1.3,1.923c1.4,1.347,1.759.49,1.766,1.528,0,.394.01-.094-.12,2.363a4.548,4.548,0,0,0-2.106,3.2c-1.97.759-5.364,1.128-5.364,2.13,0,.311.311.435.871.435a35.308,35.308,0,0,0,4.329-.78A8.81,8.81,0,0,0,41.7,55.29c-.066,2.122-.167,4.75-.323,8.007-1.037,2.195-3.84,2.289-3.641,6.519.107,2.332,1.438,9.113,4.95,9.2H42.7c3.513-.089,4.844-6.87,4.95-9.2.2-4.185-2.546-4.322-3.607-6.451-.159-3.6-.248-6.317-.294-8.379a5.241,5.241,0,0,0,2.441-3.911c7.669-3.8,32.2-11.619,32.2-31.041v-.5C78.142,8.461,67.565,0,51.141,0"/><path d="M174.556,94.265a.557.557,0,0,0,.31-.062,2.5,2.5,0,0,0,1.553-2.174,1.828,1.828,0,0,0-.123-.559,1.054,1.054,0,0,0-1.057-.621c-.186,0-.373.062-.5.062a2.077,2.077,0,0,0-1.367,1.926,1.823,1.823,0,0,0,.124.621,1.137,1.137,0,0,0,1.056.808" transform="translate(-72.581 -38.032)"/><path d="M189.518,92.688a.559.559,0,0,0,.31-.062,2.886,2.886,0,0,0,1.553-2.61,1.7,1.7,0,0,0-.063-.559,1.121,1.121,0,0,0-1.117-.745,3.521,3.521,0,0,0-.436.062,2.424,2.424,0,0,0-1.429,2.3,2.67,2.67,0,0,0,.124.684,1.262,1.262,0,0,0,1.057.932" transform="translate(-78.845 -37.138)"/><path d="M177.126,104.157c-1.429,0-7.828,6.089-12.3,6.089-1.988,0-3.852-1.243-3.852-2.982a1.448,1.448,0,0,1,.994-1.428c.621-.249,7.269-.373,7.269-3.79,0-1.739-2.609-2.112-3.665-2.112-2.105,0-6.026,1.11-7.327,4.614-2.631,1.5-7.882,6.939-9.323,8.06-.187.124-.249.249-.373.249s-.124-.187-.186-.559a12.854,12.854,0,0,1-.063-1.553c0-2.361.435-4.722.435-7.021v-.373c-.062-.932,0-2.672-1.429-2.672-.994,0-1.3.684-1.3,1.74v2.018a2.584,2.584,0,0,0-.186.219c-.808,1.119-2.734,4.473-4.535,4.473-1.741,0-1.865-2.485-1.865-3.106v-.186c0-1.305.249-2.61.249-3.977,0-.87-.5-1.74-1.3-1.74-1.507,0-1.877,1.585-1.963,4.1a2.34,2.34,0,0,0-.646.253c-2.051,1.3-6.711,7.207-7.766,7.207-.373,0-1.057-1.181-3.542-1.3,2.237-1.43,6.089-4.225,6.089-7.642,0-2.423-3.292-2.8-5.094-2.8-1.615,0-6.026.932-6.026,3.6a2.6,2.6,0,0,0,.124.76c-2.059.9-7.73,5.95-11.8,5.95-1.988,0-3.852-1.243-3.852-2.982a1.448,1.448,0,0,1,.994-1.428c.621-.249,7.269-.373,7.269-3.79,0-1.739-2.609-2.112-3.666-2.112-2.125,0-6.1,1.134-7.361,4.719-.735.953-2.384,2.55-3.635,2.55-.5,0-.559-.621-.559-.994V105.4c0-2.3-.435-5.033-4.1-5.033-5.032,0-5.467,4.536-5.467,6.461v.745a4.721,4.721,0,0,0,4.66,4.349,4.484,4.484,0,0,0,4.038-2.423c.684-.621.933-.5,1.678-.621a6.022,6.022,0,0,0,2.985-1.855c0,.018,0,.034,0,.052a5.88,5.88,0,0,0,6.151,5.717c5.212,0,11.514-5.646,13.021-7.775a1.967,1.967,0,0,0,1.579.94.681.681,0,0,0,.31-.062c.373-.062.994-.435.994-.87,0-.683-1.056-1.056-1.056-1.864,0-1.119,2.547-1.988,3.665-1.988a1.462,1.462,0,0,1,1.491,1.553c0,3.542-6.523,7.518-6.523,8.325,0,.5.186,1.491,1.119,1.491.435,0,1.429-.124,2.361-.124a4.908,4.908,0,0,1,2.05.31c.249.062.373.186.373.31,0,.249-.31.5-.5.684-2.174,1.988-5.342,6.15-5.342,9.319v.311a3.973,3.973,0,0,0,4.224,3.79c2.672,0,5.592-2.485,5.592-7.828a15.53,15.53,0,0,0-1.118-5.84c.783-1.446,5.3-5.69,7.27-7.815,0,.16,0,.319,0,.484,0,2.36,1.056,4.97,3.79,4.97,2.7,0,4.838-2.878,5.839-4.821-.007,3.658-.086,8.321-.558,9.854-.684,2.237-7.58,8.512-7.58,20.565v.5c.062,2.423.559,6.4,3.728,6.4,6.337,0,6.15-15.594,6.648-25.038.231-3.786,6.429-9.011,9.6-12.007-.01.171-.03.335-.03.513a5.879,5.879,0,0,0,6.15,5.717c5.964,0,13.357-7.393,13.357-8.45a.165.165,0,0,0-.186-.187m-11.618-2.485c.372,0,.621.124.621.5,0,.746-2.485,1.553-3.977,1.74a5.249,5.249,0,0,1,3.356-2.237m-57.1,0c.373,0,.621.124.621.5,0,.746-2.484,1.553-3.976,1.74a5.247,5.247,0,0,1,3.355-2.237m-14.662,6.834a2.293,2.293,0,0,1-1.926,1.988c-1.366,0-1.8-2.05-1.8-3.914,0-.31.062-.683.062-.994.063-.435.186-.683.373-.683.124,0,.31.186.5.559,1.367,2.3,2.733,2.174,2.8,2.92Zm.621-2.05a4.469,4.469,0,0,1-1.678-2.8v-.31c0-.5.124-1.243.559-1.243.684,0,1.181,1.553,1.181,3.293a5.961,5.961,0,0,1-.063,1.056m32.8,14.352c-.621,2.671-2.05,3.852-3.107,3.852H124c-.932-.062-1.242-1.429-1.242-2.361v-.248c.186-3.542,3.355-6.524,4.474-7.332a4.429,4.429,0,0,1,.372,2.361,16.017,16.017,0,0,1-.435,3.728m14.414,20.751h-.063c-.807,0-.993-2.237-.993-3.79v-.808a35.933,35.933,0,0,1,3.977-15.035c.248-.559.434-.808.621-.808.124,0,.186.31.186.994-.745,18.949-3.168,19.446-3.728,19.446" transform="translate(-36.567 -41.835)"/></svg>