<svg xmlns="http://www.w3.org/2000/svg" xmlns:xlink="http://www.w3.org/1999/xlink" width="163.875" height="118.5" viewBox="0 0 163.875 118.5"><defs><style>.a{fill:none;}.b{clip-path:url(#a);}.c{fill:#e21d38;}</style><clipPath id="a"><rect class="a" width="163.875" height="118.5"/></clipPath></defs><g class="b"><path class="c" d="M17.816,160.113v.792c0,2.2-1.037,3.221-2.716,3.221s-2.909-1.016-2.909-3.221V159.9c0-2.374,1.23-3.369,2.909-3.369a2.55,2.55,0,0,1,2.716,2.385h-1.69a1,1,0,0,0-1.027-.908c-.739,0-1.134.534-1.134,1.742v1.156c0,1.21.4,1.744,1.134,1.744.716,0,.952-.45,1.016-1.059h-.984v-1.477Z" transform="translate(-3.938 -50.573)"/><path class="c" d="M29.248,164.069l-1.23-2.792H27.1v2.792H25.323V156.69H28.1c1.7,0,2.792.779,2.792,2.32a1.986,1.986,0,0,1-1.176,1.957l1.476,3.1ZM27.89,159.8c.717,0,1.23-.095,1.23-.79s-.513-.846-1.23-.846H27.1V159.8Z" transform="translate(-8.182 -50.625)"/><path class="c" d="M37.4,164.069l2.568-7.379h1.711l2.568,7.379H42.349l-.4-1.261H39.675l-.385,1.261Zm2.739-2.738h1.359l-.674-2.183Z" transform="translate(-12.082 -50.625)"/><path class="c" d="M51.461,164.069V156.69H54.21c1.679,0,2.909.822,2.909,3.153v1.07c0,2.31-1.23,3.156-2.909,3.156Zm3.883-3.156v-1.07c0-.994-.214-1.679-1.134-1.679h-.973v4.428h.973c.92,0,1.134-.684,1.134-1.679" transform="translate(-16.626 -50.625)"/><path class="c" d="M75.764,164.069l-1.593-2.835-.642.878v1.957H71.753V156.69h1.775v2.738l1.9-2.738H77.5l-2.182,2.983,2.567,4.4Z" transform="translate(-23.183 -50.625)"/><path class="c" d="M87.194,164.125c-1.679,0-2.909-1.016-2.909-3.22v-1.156c0-2.224,1.23-3.218,2.909-3.218s2.909.994,2.909,3.218v1.156c0,2.2-1.23,3.22-2.909,3.22m-1.134-3.22c0,1.21.4,1.744,1.134,1.744s1.134-.534,1.134-1.744v-1.156c0-1.208-.4-1.741-1.134-1.741s-1.134.533-1.134,1.741Z" transform="translate(-27.232 -50.573)"/><path class="c" d="M101.35,160.433l1.989-3.743H105v7.379h-1.669V159.9l-1.519,2.953h-.952l-1.486-2.921v4.139H97.7V156.69H99.35Z" transform="translate(-31.567 -50.625)"/><path class="c" d="M118.2,156.69v1.474h-2.888v1.348h2.567v1.477h-2.567v1.6H118.2v1.476h-4.663V156.69Z" transform="translate(-36.683 -50.625)"/><path class="c" d="M130.75,156.69v7.379h-1.433l-2.716-4.085v4.085h-1.669V156.69h1.412l2.738,4.137V156.69Z" transform="translate(-40.364 -50.625)"/><path class="c" d="M138.586,164.069V156.69h2.749c1.679,0,2.909.822,2.909,3.153v1.07c0,2.31-1.23,3.156-2.909,3.156Zm3.883-3.156v-1.07c0-.994-.214-1.679-1.134-1.679h-.973v4.428h.973c.92,0,1.134-.684,1.134-1.679" transform="translate(-44.776 -50.625)"/><path class="c" d="M150.186,164.069l2.567-7.379h1.711l2.568,7.379h-1.893l-.4-1.261h-2.279l-.384,1.261Zm2.738-2.738h1.359l-.674-2.183Z" transform="translate(-48.523 -50.625)"/><path class="c" d="M11.537,98.558v-.868c0-4.124,1.809-8.971,4.2-8.971.651,0,1.665.217,1.665.8a.532.532,0,0,1-.145.435,13.864,13.864,0,0,0-1.736,6.728v.868c.506,6.946,4.341,8.393,6.584,8.393A11.144,11.144,0,0,0,33.025,94.361c0-.361-.073-.724-.073-1.085-.578-7.669-6-13.891-10.852-13.891-.579,0-1.375.217-2.1.217-1.23,0-1.809-.579-1.881-1.013v-.072c0-1.086,2.459-1.3,3.4-1.809C24.342,75.334,31,69.474,31,63.758v-.434a4.8,4.8,0,0,0-4.7-4.486c-3.762,0-8.826,4.775-8.826,9.912v.506c.072,1.086.579,2.243.651,3.184v.145c0,.723-.579.94-1.52.94-2.1,0-2.822-1.664-2.967-3.545v-.8a12.291,12.291,0,0,1,12.733-12.3c3.039,0,8.321,1.3,8.683,6.511v.578c0,7.091-8.61,13.1-8.61,13.6,0,.434,10.2,3.473,11.07,15.628,0,.434.072.8.072,1.23,0,9.115-7.234,13.385-15.265,13.385-6.656,0-10.347-3.256-10.78-9.261" transform="translate(-3.727 -18.379)"/><path d="M59.546,0C28.4,0,0,19.631,0,30.28a3.137,3.137,0,0,0,2.753,3.26,1.109,1.109,0,0,0,1.086-1.232c0-.579-.29-1.3-.29-1.81,0-9.128,24.051-28.541,54.186-28.541,13.111,0,29.409,5.723,29.409,20.935,0,21.211-28.569,32.777-34.131,34.7a4.946,4.946,0,0,0-2.05-1.692c-.127-2.334-.153-2.052-.152-2.484.005-1.209.426-.211,2.054-1.779A14.17,14.17,0,0,0,54.375,49.4a10.174,10.174,0,0,0,.667-5.811s-1.527-9.513-2.156-12.735c-.073-.373-.322-.52-.43-.485-.226.073-.208.361-.2.5.162,3.546.8,13.789.786,14.092-.028.342.169.858-.469,1.032-.7.188-.7-.8-.7-.8s-.46-10.766-.887-14.343c-.045-.377-.239-.485-.352-.485-.32,0-.315.485-.315.485s.057,13.379.056,14.183c0,.986-.472,1.011-.472,1.011-.07,0-.131.018-.19.018s-.12-.018-.192-.018c0,0-.47-.024-.471-1.011,0-.8.056-14.183.056-14.183s0-.485-.315-.485c-.113,0-.307.108-.352.485-.427,3.577-.887,14.343-.887,14.343s0,.988-.7.8c-.64-.173-.441-.69-.469-1.032-.02-.3.623-10.546.785-14.092.007-.144.024-.432-.2-.5-.108-.035-.356.112-.429.485-.629,3.221-2.156,12.735-2.156,12.735a10.177,10.177,0,0,0,.666,5.811,14.216,14.216,0,0,0,1.509,2.239c1.629,1.568,2.048.57,2.056,1.779,0,.458.012-.109-.14,2.751-1.23.6-1.98,1.91-2.452,3.725-2.293.884-6.246,1.314-6.246,2.48,0,.362.362.507,1.014.507a41.11,41.11,0,0,0,5.041-.908,10.258,10.258,0,0,0,2.732,2.407c-.076,2.471-.194,5.53-.376,9.322-1.207,2.555-4.472,2.666-4.239,7.59C44.066,84.005,45.615,91.9,49.7,92h.007c4.09-.1,5.64-8,5.764-10.715.23-4.873-2.964-5.032-4.2-7.512-.185-4.188-.289-7.355-.343-9.756,1.489-.944,2.881-2.928,2.842-4.554,8.929-4.425,37.5-13.528,37.5-36.142v-.579C90.985,9.852,78.669,0,59.546,0"/><path d="M174.75,94.827a.649.649,0,0,0,.361-.072,2.906,2.906,0,0,0,1.809-2.532,2.128,2.128,0,0,0-.144-.651,1.227,1.227,0,0,0-1.231-.724c-.217,0-.435.072-.578.072a2.419,2.419,0,0,0-1.592,2.243,2.122,2.122,0,0,0,.145.724,1.324,1.324,0,0,0,1.229.94" transform="translate(-56.016 -29.352)"/><path d="M189.712,93.341a.651.651,0,0,0,.361-.072,3.36,3.36,0,0,0,1.809-3.039,1.979,1.979,0,0,0-.073-.651,1.305,1.305,0,0,0-1.3-.868,4.1,4.1,0,0,0-.508.072,2.823,2.823,0,0,0-1.664,2.676,3.11,3.11,0,0,0,.145.8,1.47,1.47,0,0,0,1.231,1.085" transform="translate(-60.85 -28.662)"/><path d="M191.88,104.851c-1.664,0-9.115,7.089-14.323,7.089-2.315,0-4.485-1.447-4.485-3.473a1.686,1.686,0,0,1,1.158-1.663c.723-.29,8.463-.434,8.463-4.413,0-2.025-3.037-2.459-4.268-2.459-2.451,0-7.017,1.293-8.531,5.373-3.063,1.75-9.177,8.079-10.856,9.385-.218.145-.29.29-.435.29s-.145-.217-.217-.651a14.963,14.963,0,0,1-.073-1.809c0-2.749.506-5.5.506-8.174v-.434c-.072-1.085,0-3.111-1.664-3.111-1.158,0-1.519.8-1.519,2.026v2.35a3,3,0,0,0-.217.255c-.94,1.3-3.184,5.208-5.281,5.208-2.027,0-2.172-2.894-2.172-3.617V106.8c0-1.52.29-3.039.29-4.63,0-1.013-.578-2.026-1.518-2.026-1.755,0-2.185,1.846-2.286,4.77a2.725,2.725,0,0,0-.752.294c-2.388,1.519-7.814,8.391-9.043,8.391-.435,0-1.231-1.375-4.124-1.519,2.6-1.665,7.089-4.919,7.089-8.9,0-2.821-3.833-3.255-5.932-3.255-1.88,0-7.016,1.085-7.016,4.2a3.022,3.022,0,0,0,.144.885c-2.4,1.048-9,6.928-13.745,6.928-2.315,0-4.485-1.447-4.485-3.473a1.686,1.686,0,0,1,1.158-1.663c.723-.29,8.463-.434,8.463-4.413,0-2.025-3.038-2.459-4.269-2.459-2.475,0-7.1,1.321-8.571,5.494-.856,1.11-2.776,2.969-4.232,2.969-.578,0-.651-.723-.651-1.157v-.94c0-2.677-.506-5.86-4.775-5.86-5.859,0-6.365,5.281-6.365,7.523v.868c.433,2.894,2.46,5.064,5.425,5.064a5.221,5.221,0,0,0,4.7-2.821c.8-.723,1.086-.579,1.954-.723a7.012,7.012,0,0,0,3.476-2.159c0,.021,0,.04,0,.061,0,3.979,3.4,6.656,7.162,6.656,6.068,0,13.407-6.573,15.161-9.052a2.29,2.29,0,0,0,1.839,1.095.793.793,0,0,0,.361-.072c.435-.072,1.158-.506,1.158-1.013,0-.8-1.229-1.23-1.229-2.17,0-1.3,2.966-2.315,4.268-2.315a1.7,1.7,0,0,1,1.736,1.809c0,4.124-7.6,8.753-7.6,9.693,0,.579.217,1.736,1.3,1.736.506,0,1.664-.144,2.749-.144a5.714,5.714,0,0,1,2.387.361c.29.072.435.217.435.361,0,.29-.361.579-.579.8-2.532,2.314-6.22,7.161-6.22,10.85v.362a4.626,4.626,0,0,0,4.918,4.413c3.111,0,6.511-2.894,6.511-9.115a18.082,18.082,0,0,0-1.3-6.8c.912-1.684,6.168-6.626,8.465-9.1,0,.186,0,.372,0,.564,0,2.748,1.229,5.787,4.413,5.787,3.149,0,5.633-3.351,6.8-5.614-.008,4.259-.1,9.689-.65,11.473-.8,2.6-8.826,9.911-8.826,23.945v.579c.072,2.821.651,7.451,4.34,7.451,7.379,0,7.161-18.157,7.74-29.153.269-4.408,7.485-10.492,11.176-13.981-.012.2-.035.39-.035.6,0,3.979,3.4,6.656,7.161,6.656,6.944,0,15.553-8.608,15.553-9.838a.192.192,0,0,0-.217-.217m-13.527-2.894c.433,0,.723.145.723.579,0,.868-2.893,1.809-4.63,2.026a6.111,6.111,0,0,1,3.907-2.6m-66.481,0c.434,0,.723.145.723.579,0,.868-2.892,1.809-4.629,2.026a6.11,6.11,0,0,1,3.906-2.6M94.8,109.914a2.67,2.67,0,0,1-2.243,2.315c-1.591,0-2.1-2.387-2.1-4.557,0-.361.072-.8.072-1.158.073-.506.217-.8.435-.8.145,0,.361.217.578.651,1.591,2.676,3.182,2.531,3.255,3.4Zm.723-2.387a5.2,5.2,0,0,1-1.954-3.255v-.361c0-.579.145-1.447.651-1.447.8,0,1.375,1.809,1.375,3.835a6.94,6.94,0,0,1-.073,1.229m38.2,16.711c-.723,3.11-2.387,4.485-3.617,4.485h-.072c-1.085-.072-1.447-1.664-1.447-2.749v-.289c.217-4.124,3.906-7.6,5.209-8.537.217.072.433,1.23.433,2.749a18.649,18.649,0,0,1-.506,4.341M150.5,148.4h-.073c-.94,0-1.156-2.6-1.156-4.413v-.94a41.839,41.839,0,0,1,4.63-17.506c.288-.651.506-.94.723-.94.144,0,.217.361.217,1.158-.868,22.063-3.689,22.642-4.34,22.642" transform="translate(-28.222 -32.287)"/></g></svg>